<?xml version="1.0" encoding="UTF-8"?>
<!DOCTYPE svg PUBLIC "-//W3C//DTD SVG 1.1//EN" "http://www.w3.org/Graphics/SVG/1.1/DTD/svg11.dtd">
<svg xmlns="http://www.w3.org/2000/svg" version="1.1" width="1278px" height="1336px" style="shape-rendering:geometricPrecision; text-rendering:geometricPrecision; image-rendering:optimizeQuality; fill-rule:evenodd; clip-rule:evenodd" xmlns:xlink="http://www.w3.org/1999/xlink">
<g><path style="opacity:1" fill="#f9f9f9" d="M -0.5,-0.5 C 425.5,-0.5 851.5,-0.5 1277.5,-0.5C 1277.5,444.833 1277.5,890.167 1277.5,1335.5C 851.5,1335.5 425.5,1335.5 -0.5,1335.5C -0.5,890.167 -0.5,444.833 -0.5,-0.5 Z"/></g>
<g><path style="opacity:1" fill="#010101" d="M 392.5,437.5 C 427.697,436.545 448.864,453.212 456,487.5C 456.667,498.5 456.667,509.5 456,520.5C 450.058,555.723 429.225,572.889 393.5,572C 364.149,567.314 347.649,550.147 344,520.5C 343.333,509.5 343.333,498.5 344,487.5C 348.639,459.364 364.806,442.698 392.5,437.5 Z"/></g>
<g><path style="opacity:1" fill="#000000" d="M 222.5,439.5 C 244.539,439.067 266.539,439.567 288.5,441C 317.544,447.567 328.377,465.4 321,494.5C 316.975,504.526 310.142,512.026 300.5,517C 310.186,534.54 319.186,552.373 327.5,570.5C 316.167,570.5 304.833,570.5 293.5,570.5C 287,555.165 279.666,540.165 271.5,525.5C 265.537,524.504 259.537,524.171 253.5,524.5C 253.5,539.833 253.5,555.167 253.5,570.5C 243.167,570.5 232.833,570.5 222.5,570.5C 222.5,526.833 222.5,483.167 222.5,439.5 Z"/></g>
<g><path style="opacity:1" fill="#010101" d="M 589.5,485.5 C 590.629,483.372 590.796,481.039 590,478.5C 589.283,479.044 588.783,479.711 588.5,480.5C 578.576,509.773 568.742,539.106 559,568.5C 555.598,569.789 551.931,570.456 548,570.5C 544.069,570.456 540.402,569.789 537,568.5C 527.258,539.106 517.424,509.773 507.5,480.5C 507.217,479.711 506.717,479.044 506,478.5C 505.199,481.367 505.366,484.034 506.5,486.5C 507.922,514.479 508.588,542.479 508.5,570.5C 498.167,570.5 487.833,570.5 477.5,570.5C 477.5,526.833 477.5,483.167 477.5,439.5C 491.412,439.177 505.246,439.51 519,440.5C 528.671,470.523 538.337,500.523 548,530.5C 557.663,500.523 567.329,470.523 577,440.5C 590.754,439.51 604.588,439.177 618.5,439.5C 618.5,483.167 618.5,526.833 618.5,570.5C 608.167,570.5 597.833,570.5 587.5,570.5C 587.197,542.139 587.864,513.806 589.5,485.5 Z"/></g>
<g><path style="opacity:1" fill="#010101" d="M 681.5,439.5 C 691.5,439.5 701.5,439.5 711.5,439.5C 726.97,483.243 742.636,526.909 758.5,570.5C 747.48,570.832 736.48,570.499 725.5,569.5C 722.96,561.881 720.626,554.214 718.5,546.5C 703.5,546.5 688.5,546.5 673.5,546.5C 671.296,554.445 669.296,562.445 667.5,570.5C 656.147,570.832 644.814,570.499 633.5,569.5C 649.516,526.141 665.516,482.808 681.5,439.5 Z"/></g>
<g><path style="opacity:1" fill="#000000" d="M 848.5,517.5 C 848.461,518.756 848.961,519.756 850,520.5C 850.5,493.502 850.667,466.502 850.5,439.5C 860.833,439.5 871.167,439.5 881.5,439.5C 881.5,483.167 881.5,526.833 881.5,570.5C 870.918,570.82 860.418,570.487 850,569.5C 835.339,543.354 820.506,517.354 805.5,491.5C 805.217,490.711 804.717,490.044 804,489.5C 803.5,516.498 803.333,543.498 803.5,570.5C 793.167,570.5 782.833,570.5 772.5,570.5C 772.5,526.833 772.5,483.167 772.5,439.5C 783.187,439.168 793.854,439.501 804.5,440.5C 818.941,466.392 833.608,492.059 848.5,517.5 Z"/></g>
<g><path style="opacity:1" fill="#cccccc" d="M 850.5,439.5 C 850.667,466.502 850.5,493.502 850,520.5C 848.961,519.756 848.461,518.756 848.5,517.5C 849.167,491.5 849.833,465.5 850.5,439.5 Z"/></g>
<g><path style="opacity:1" fill="#000000" d="M 907.5,439.5 C 917.833,439.5 928.167,439.5 938.5,439.5C 938.5,483.167 938.5,526.833 938.5,570.5C 928.167,570.5 917.833,570.5 907.5,570.5C 907.5,526.833 907.5,483.167 907.5,439.5 Z"/></g>
<g><path style="opacity:1" fill="#010101" d="M 1004.5,439.5 C 1014.5,439.5 1024.5,439.5 1034.5,439.5C 1049.97,483.243 1065.64,526.909 1081.5,570.5C 1070.48,570.832 1059.48,570.499 1048.5,569.5C 1045.96,561.881 1043.63,554.214 1041.5,546.5C 1026.5,546.5 1011.5,546.5 996.5,546.5C 994.296,554.445 992.296,562.445 990.5,570.5C 979.147,570.832 967.814,570.499 956.5,569.5C 972.516,526.141 988.516,482.808 1004.5,439.5 Z"/></g>
<g><path style="opacity:1" fill="#f6f6f6" d="M 392.5,462.5 C 410.227,460.279 420.727,467.946 424,485.5C 426.228,499.571 425.895,513.571 423,527.5C 417.078,546.71 404.911,552.21 386.5,544C 380.756,538.346 377.256,531.513 376,523.5C 373.803,509.434 374.136,495.434 377,481.5C 379.13,472.55 384.297,466.217 392.5,462.5 Z"/></g>
<g><path style="opacity:1" fill="#9e9e9e" d="M 278.5,464.5 C 270.5,464.5 262.5,464.5 254.5,464.5C 254.5,476.167 254.5,487.833 254.5,499.5C 262.5,499.5 270.5,499.5 278.5,499.5C 270.35,500.493 262.017,500.826 253.5,500.5C 253.5,488.167 253.5,475.833 253.5,463.5C 262.017,463.174 270.35,463.507 278.5,464.5 Z"/></g>
<g><path style="opacity:1" fill="#f9f9f9" d="M 278.5,464.5 C 287.709,466.382 292.042,472.048 291.5,481.5C 292.47,491.507 288.137,497.507 278.5,499.5C 270.5,499.5 262.5,499.5 254.5,499.5C 254.5,487.833 254.5,476.167 254.5,464.5C 262.5,464.5 270.5,464.5 278.5,464.5 Z"/></g>
<g><path style="opacity:1" fill="#757575" d="M 589.5,485.5 C 589.784,483.585 589.451,481.919 588.5,480.5C 588.783,479.711 589.283,479.044 590,478.5C 590.796,481.039 590.629,483.372 589.5,485.5 Z"/></g>
<g><path style="opacity:1" fill="#f2f2f2" d="M 709.5,520.5 C 700.5,521.833 691.5,521.833 682.5,520.5C 686.694,505.75 691.194,491.084 696,476.5C 701.212,490.969 705.712,505.636 709.5,520.5 Z"/></g>
<g><path style="opacity:1" fill="#f2f2f2" d="M 1032.5,520.5 C 1023.5,521.833 1014.5,521.833 1005.5,520.5C 1009.69,505.75 1014.19,491.084 1019,476.5C 1024.21,490.969 1028.71,505.636 1032.5,520.5 Z"/></g>
<g><path style="opacity:1" fill="#595959" d="M 507.5,480.5 C 506.539,482.265 506.205,484.265 506.5,486.5C 505.366,484.034 505.199,481.367 506,478.5C 506.717,479.044 507.217,479.711 507.5,480.5 Z"/></g>
<g><path style="opacity:1" fill="#8f8f8f" d="M 805.5,491.5 C 804.833,517.833 804.167,544.167 803.5,570.5C 803.333,543.498 803.5,516.498 804,489.5C 804.717,490.044 805.217,490.711 805.5,491.5 Z"/></g>
<g><path style="opacity:1" fill="#b2b2b2" d="M 682.5,520.5 C 691.5,521.833 700.5,521.833 709.5,520.5C 710.043,520.56 710.376,520.893 710.5,521.5C 700.833,522.833 691.167,522.833 681.5,521.5C 681.624,520.893 681.957,520.56 682.5,520.5 Z"/></g>
<g><path style="opacity:1" fill="#b2b2b2" d="M 1005.5,520.5 C 1014.5,521.833 1023.5,521.833 1032.5,520.5C 1033.04,520.56 1033.38,520.893 1033.5,521.5C 1023.83,522.833 1014.17,522.833 1004.5,521.5C 1004.62,520.893 1004.96,520.56 1005.5,520.5 Z"/></g>
<g><path style="opacity:1" fill="#000000" d="M 901.5,615.5 C 931.798,613.953 961.131,618.453 989.5,629C 1035.7,649.029 1059.37,684.196 1060.5,734.5C 1030.17,734.5 999.833,734.5 969.5,734.5C 968.602,707.442 954.936,691.276 928.5,686C 919.167,685.333 909.833,685.333 900.5,686C 881.277,688.671 868.777,699.171 863,717.5C 861.717,726.319 863.717,734.319 869,741.5C 881.831,753.507 896.665,762.34 913.5,768C 942.847,776.783 971.18,788.116 998.5,802C 1052.97,832.705 1071.47,878.205 1054,938.5C 1043.13,964.369 1024.63,982.536 998.5,993C 947.77,1011.63 896.77,1012.3 845.5,995C 818.235,985.723 796.068,969.556 779,946.5C 765.673,925.867 759.173,903.2 759.5,878.5C 790.167,878.5 820.833,878.5 851.5,878.5C 851.058,892.137 854.224,904.803 861,916.5C 868.174,925.513 877.341,931.679 888.5,935C 905.777,939.128 923.111,939.462 940.5,936C 964.377,927.754 973.21,911.254 967,886.5C 962.251,875.417 954.417,867.25 943.5,862C 937.954,859.06 932.287,856.394 926.5,854C 901.403,845.784 876.736,836.451 852.5,826C 828.312,815.334 807.479,800.167 790,780.5C 773.112,756.738 767.445,730.404 773,701.5C 782.833,668.994 803.333,645.827 834.5,632C 856.083,623.076 878.416,617.576 901.5,615.5 Z"/></g>
<g><path style="opacity:1" fill="#010101" d="M 222.5,620.5 C 253.167,620.5 283.833,620.5 314.5,620.5C 314.5,747.833 314.5,875.167 314.5,1002.5C 283.833,1002.5 253.167,1002.5 222.5,1002.5C 222.5,875.167 222.5,747.833 222.5,620.5 Z"/></g>
<g><path style="opacity:1" fill="#000000" d="M 504.5,620.5 C 533.74,620.171 562.907,620.505 592,621.5C 639.41,748.314 686.243,875.314 732.5,1002.5C 699.5,1002.5 666.5,1002.5 633.5,1002.5C 626.912,979.066 619.912,955.733 612.5,932.5C 570.171,931.333 527.837,931.167 485.5,932C 477.665,955.339 470.332,978.839 463.5,1002.5C 430.498,1002.67 397.498,1002.5 364.5,1002C 411.861,875.083 458.528,747.917 504.5,620.5 Z"/></g>
<g><path style="opacity:1" fill="#f6f6f6" d="M 548.5,727.5 C 562.741,771.563 576.408,815.896 589.5,860.5C 562.167,860.5 534.833,860.5 507.5,860.5C 520.705,816.012 534.371,771.678 548.5,727.5 Z"/></g>
<g><path style="opacity:1" fill="#757575" d="M 233.5,1026.5 C 232.497,1023.62 232.164,1019.95 232.5,1015.5C 230.167,1015.5 227.833,1015.5 225.5,1015.5C 225.5,1027.5 225.5,1039.5 225.5,1051.5C 224.505,1039.34 224.171,1027.01 224.5,1014.5C 227.5,1014.5 230.5,1014.5 233.5,1014.5C 233.5,1018.5 233.5,1022.5 233.5,1026.5 Z"/></g>
<g><path style="opacity:1" fill="#040404" d="M 233.5,1026.5 C 240.949,1023.64 245.782,1025.98 248,1033.5C 248.977,1038.73 248.31,1043.73 246,1048.5C 241.79,1052.08 237.29,1052.41 232.5,1049.5C 230.477,1051.17 228.144,1051.84 225.5,1051.5C 225.5,1039.5 225.5,1027.5 225.5,1015.5C 227.833,1015.5 230.167,1015.5 232.5,1015.5C 232.164,1019.95 232.497,1023.62 233.5,1026.5 Z"/></g>
<g><path style="opacity:1" fill="#090909" d="M 310.5,1014.5 C 313.167,1014.5 315.833,1014.5 318.5,1014.5C 318.174,1018.88 318.508,1023.22 319.5,1027.5C 325.08,1024.09 329.58,1025.09 333,1030.5C 333.5,1037.49 333.666,1044.49 333.5,1051.5C 330.833,1051.5 328.167,1051.5 325.5,1051.5C 325.5,1044.83 325.5,1038.17 325.5,1031.5C 323.208,1031.24 321.041,1031.58 319,1032.5C 318.5,1038.82 318.334,1045.16 318.5,1051.5C 315.833,1051.5 313.167,1051.5 310.5,1051.5C 310.5,1039.17 310.5,1026.83 310.5,1014.5 Z"/></g>
<g><path style="opacity:1" fill="#121212" d="M 384.5,1015.5 C 391.19,1014.33 392.857,1016.5 389.5,1022C 383.244,1022.93 381.577,1020.77 384.5,1015.5 Z"/></g>
<g><path style="opacity:1" fill="#020202" d="M 306.5,1030.5 C 304.833,1030.5 303.167,1030.5 301.5,1030.5C 301.181,1035.36 301.514,1040.03 302.5,1044.5C 303.568,1045.43 304.901,1045.77 306.5,1045.5C 307.08,1049.18 305.58,1051.18 302,1051.5C 297.632,1051.68 295.132,1049.68 294.5,1045.5C 294.5,1040.5 294.5,1035.5 294.5,1030.5C 293.5,1030.5 292.5,1030.5 291.5,1030.5C 291.5,1028.83 291.5,1027.17 291.5,1025.5C 292.5,1025.5 293.5,1025.5 294.5,1025.5C 294.5,1023.5 294.5,1021.5 294.5,1019.5C 296.833,1019.5 299.167,1019.5 301.5,1019.5C 301.5,1021.5 301.5,1023.5 301.5,1025.5C 303.167,1025.5 304.833,1025.5 306.5,1025.5C 306.5,1027.17 306.5,1028.83 306.5,1030.5 Z"/></g>
<g><path style="opacity:1" fill="#020202" d="M 549.5,1030.5 C 547.833,1030.5 546.167,1030.5 544.5,1030.5C 544.181,1035.36 544.514,1040.03 545.5,1044.5C 546.568,1045.43 547.901,1045.77 549.5,1045.5C 550.08,1049.18 548.58,1051.18 545,1051.5C 540.632,1051.68 538.132,1049.68 537.5,1045.5C 537.5,1040.5 537.5,1035.5 537.5,1030.5C 536.5,1030.5 535.5,1030.5 534.5,1030.5C 534.5,1028.83 534.5,1027.17 534.5,1025.5C 535.5,1025.5 536.5,1025.5 537.5,1025.5C 537.5,1023.5 537.5,1021.5 537.5,1019.5C 539.833,1019.5 542.167,1019.5 544.5,1019.5C 544.5,1021.5 544.5,1023.5 544.5,1025.5C 546.167,1025.5 547.833,1025.5 549.5,1025.5C 549.5,1027.17 549.5,1028.83 549.5,1030.5 Z"/></g>
<g><path style="opacity:1" fill="#070707" d="M 251.5,1026.5 C 254.287,1025.52 257.287,1025.19 260.5,1025.5C 262.377,1043.38 264.877,1043.72 268,1026.5C 270.795,1025.22 273.628,1025.22 276.5,1026.5C 272.568,1037.13 268.735,1047.8 265,1058.5C 262.016,1061.1 258.516,1062.1 254.5,1061.5C 254.5,1059.5 254.5,1057.5 254.5,1055.5C 257.864,1056.13 259.864,1054.79 260.5,1051.5C 258.062,1042.85 255.062,1034.51 251.5,1026.5 Z"/></g>
<g><path style="opacity:1" fill="#060606" d="M 348.5,1025.5 C 359.313,1024.8 363.98,1029.8 362.5,1040.5C 357.156,1040.33 351.823,1040.5 346.5,1041C 347.167,1043 348.5,1044.33 350.5,1045C 353.672,1045.42 356.672,1045.09 359.5,1044C 363.435,1046.46 363.102,1048.46 358.5,1050C 344.405,1053.37 338.238,1047.87 340,1033.5C 341.445,1029.22 344.278,1026.55 348.5,1025.5 Z"/></g>
<g><path style="opacity:1" fill="#101010" d="M 383.5,1025.5 C 386.167,1025.5 388.833,1025.5 391.5,1025.5C 391.5,1034.17 391.5,1042.83 391.5,1051.5C 388.833,1051.5 386.167,1051.5 383.5,1051.5C 383.5,1042.83 383.5,1034.17 383.5,1025.5 Z"/></g>
<g><path style="opacity:1" fill="#111111" d="M 397.5,1025.5 C 400.167,1025.5 402.833,1025.5 405.5,1025.5C 405.443,1029.13 406.443,1029.3 408.5,1026C 412.244,1025.07 415.744,1025.57 419,1027.5C 420.435,1035.39 420.935,1043.39 420.5,1051.5C 417.833,1051.5 415.167,1051.5 412.5,1051.5C 412.5,1044.83 412.5,1038.17 412.5,1031.5C 410.208,1031.24 408.041,1031.58 406,1032.5C 405.5,1038.82 405.334,1045.16 405.5,1051.5C 402.833,1051.5 400.167,1051.5 397.5,1051.5C 397.5,1042.83 397.5,1034.17 397.5,1025.5 Z"/></g>
<g><path style="opacity:1" fill="#070707" d="M 432.5,1025.5 C 438.039,1024.64 442.872,1025.97 447,1029.5C 447.49,1030.79 447.657,1032.13 447.5,1033.5C 442.858,1033.08 438.525,1032.25 434.5,1031C 433.269,1032.18 433.269,1033.35 434.5,1034.5C 439.255,1035.39 443.422,1037.39 447,1040.5C 448.892,1046.04 447.059,1049.54 441.5,1051C 434.211,1053.27 428.877,1051.1 425.5,1044.5C 427.765,1043.35 430.098,1043.19 432.5,1044C 435.366,1047.26 438.033,1047.26 440.5,1044C 437.254,1041.59 433.587,1039.92 429.5,1039C 424.966,1033.16 425.966,1028.66 432.5,1025.5 Z"/></g>
<g><path style="opacity:1" fill="#0e0e0e" d="M 452.5,1025.5 C 455.711,1025.01 458.544,1025.68 461,1027.5C 468.469,1023.46 473.469,1025.46 476,1033.5C 476.977,1038.73 476.31,1043.73 474,1048.5C 469.924,1052.03 465.591,1052.37 461,1049.5C 460.501,1053.49 460.334,1057.49 460.5,1061.5C 457.833,1061.5 455.167,1061.5 452.5,1061.5C 452.5,1049.5 452.5,1037.5 452.5,1025.5 Z"/></g>
<g><path style="opacity:1" fill="#060606" d="M 489.5,1025.5 C 500.313,1024.8 504.98,1029.8 503.5,1040.5C 498.156,1040.33 492.823,1040.5 487.5,1041C 488.167,1043 489.5,1044.33 491.5,1045C 494.672,1045.42 497.672,1045.09 500.5,1044C 504.435,1046.46 504.102,1048.46 499.5,1050C 485.405,1053.37 479.238,1047.87 481,1033.5C 482.445,1029.22 485.278,1026.55 489.5,1025.5 Z"/></g>
<g><path style="opacity:1" fill="#050505" d="M 517.5,1025.5 C 525.181,1024.81 529.515,1028.14 530.5,1035.5C 528.076,1035.81 525.743,1035.47 523.5,1034.5C 521.992,1031.58 519.825,1030.92 517,1032.5C 515,1036.5 515,1040.5 517,1044.5C 519.825,1046.08 521.992,1045.42 523.5,1042.5C 525.743,1041.53 528.076,1041.19 530.5,1041.5C 530.558,1046.94 527.892,1050.11 522.5,1051C 510.191,1050.95 505.691,1044.79 509,1032.5C 510.866,1028.78 513.699,1026.45 517.5,1025.5 Z"/></g>
<g><path style="opacity:1" fill="#070707" d="M 558.5,1025.5 C 573.637,1024.14 579.137,1030.81 575,1045.5C 574.215,1047.29 573.049,1048.79 571.5,1050C 556.749,1053.59 550.583,1047.75 553,1032.5C 554.666,1030 556.5,1027.67 558.5,1025.5 Z"/></g>
<g><path style="opacity:1" fill="#0e0e0e" d="M 580.5,1025.5 C 583.167,1025.5 585.833,1025.5 588.5,1025.5C 588.443,1029.13 589.443,1029.3 591.5,1026C 593.134,1025.51 594.801,1025.34 596.5,1025.5C 596.5,1027.83 596.5,1030.17 596.5,1032.5C 593.635,1032.05 591.135,1032.72 589,1034.5C 588.501,1040.16 588.334,1045.82 588.5,1051.5C 585.833,1051.5 583.167,1051.5 580.5,1051.5C 580.5,1042.83 580.5,1034.17 580.5,1025.5 Z"/></g>
<g><path style="opacity:1" fill="#ebebeb" d="M 233.5,1031.5 C 235.792,1031.24 237.959,1031.58 240,1032.5C 240.796,1036.75 240.629,1040.92 239.5,1045C 237.231,1045.76 235.064,1045.59 233,1044.5C 232.232,1040.08 232.398,1035.75 233.5,1031.5 Z"/></g>
<g><path style="opacity:1" fill="#a9a9a9" d="M 291.5,1025.5 C 291.5,1027.17 291.5,1028.83 291.5,1030.5C 292.5,1030.5 293.5,1030.5 294.5,1030.5C 294.5,1035.5 294.5,1040.5 294.5,1045.5C 293.514,1041.03 293.181,1036.36 293.5,1031.5C 292.5,1031.5 291.5,1031.5 290.5,1031.5C 290.205,1029.26 290.539,1027.26 291.5,1025.5 Z"/></g>
<g><path style="opacity:1" fill="#888888" d="M 306.5,1030.5 C 305.432,1031.43 304.099,1031.77 302.5,1031.5C 302.5,1035.83 302.5,1040.17 302.5,1044.5C 301.514,1040.03 301.181,1035.36 301.5,1030.5C 303.167,1030.5 304.833,1030.5 306.5,1030.5 Z"/></g>
<g><path style="opacity:1" fill="#eaeaea" d="M 461.5,1031.5 C 463.792,1031.24 465.959,1031.58 468,1032.5C 468.767,1036.56 468.6,1040.56 467.5,1044.5C 465.305,1045.77 463.139,1045.77 461,1044.5C 460.232,1040.08 460.398,1035.75 461.5,1031.5 Z"/></g>
<g><path style="opacity:1" fill="#a9a9a9" d="M 534.5,1025.5 C 534.5,1027.17 534.5,1028.83 534.5,1030.5C 535.5,1030.5 536.5,1030.5 537.5,1030.5C 537.5,1035.5 537.5,1040.5 537.5,1045.5C 536.514,1041.03 536.181,1036.36 536.5,1031.5C 535.5,1031.5 534.5,1031.5 533.5,1031.5C 533.205,1029.26 533.539,1027.26 534.5,1025.5 Z"/></g>
<g><path style="opacity:1" fill="#888888" d="M 549.5,1030.5 C 548.432,1031.43 547.099,1031.77 545.5,1031.5C 545.5,1035.83 545.5,1040.17 545.5,1044.5C 544.514,1040.03 544.181,1035.36 544.5,1030.5C 546.167,1030.5 547.833,1030.5 549.5,1030.5 Z"/></g>
<g><path style="opacity:1" fill="#efefef" d="M 561.5,1031.5 C 564.044,1031.1 566.211,1031.77 568,1033.5C 568.76,1037.23 568.593,1040.89 567.5,1044.5C 564.23,1046.21 561.73,1045.55 560,1042.5C 559.112,1038.6 559.612,1034.93 561.5,1031.5 Z"/></g>
<g><path style="opacity:1" fill="#efefef" d="M 349.5,1031.5 C 352.278,1031.02 354.278,1032.02 355.5,1034.5C 352.833,1035.83 350.167,1035.83 347.5,1034.5C 348.193,1033.48 348.859,1032.48 349.5,1031.5 Z"/></g>
<g><path style="opacity:1" fill="#efefef" d="M 490.5,1031.5 C 493.278,1031.02 495.278,1032.02 496.5,1034.5C 493.833,1035.83 491.167,1035.83 488.5,1034.5C 489.193,1033.48 489.859,1032.48 490.5,1031.5 Z"/></g>
<g><path style="opacity:1" fill="#030303" d="M 369.5,1044.5 C 375.113,1043.08 377.28,1045.08 376,1050.5C 370.101,1052.43 367.935,1050.43 369.5,1044.5 Z"/></g>
</svg>
